<?xml version="1.0" encoding="UTF-8"?>
<!DOCTYPE svg PUBLIC "-//W3C//DTD SVG 1.1//EN" "http://www.w3.org/Graphics/SVG/1.1/DTD/svg11.dtd">
<!-- Creator: CorelDRAW -->
<svg xmlns="http://www.w3.org/2000/svg" xml:space="preserve" width="370px" height="881px" version="1.1" style="shape-rendering:geometricPrecision; text-rendering:geometricPrecision; image-rendering:optimizeQuality; fill-rule:evenodd; clip-rule:evenodd"
viewBox="0 0 4171000 9932000"
 xmlns:xlink="http://www.w3.org/1999/xlink"
 xmlns:xodm="http://www.corel.com/coreldraw/odm/2003">
 <defs>
  <style type="text/css">
   <![CDATA[
    .fil0 {fill:white;fill-rule:nonzero;fill-opacity:0.301961}
   ]]>
  </style>
 </defs>
 <g id="Layer_x0020_1">
  <metadata id="CorelCorpID_0Corel-Layer"/>
  <g id="_1568297766320">
   <path class="fil0" d="M3224000 7383000l73000 0 1000 0 442000 0 0 0 1000 0 73000 0 0 -350000 -85000 0 -1000 0 0 0 -211000 0 0 0 -207000 0 -1000 0 -85000 0 0 350000zm582000 150000l-65000 0 -1000 0 0 0 -442000 0 0 0 -1000 0 -65000 0c-6000,0 -10000,-4000 -10000,-10000 0,-5000 4000,-10000 10000,-10000l56000 0 0 -110000 -74000 0c-6000,0 -10000,-5000 -10000,-10000l0 -370000c0,-5000 4000,-10000 10000,-10000l86000 0 0 -26000 -36000 0c-5000,0 -9000,-5000 -9000,-10000l0 -38000c0,-5000 4000,-10000 9000,-10000l91000 0c5000,0 10000,5000 10000,10000l0 38000c0,5000 -5000,10000 -10000,10000l-35000 0 0 26000 187000 0 0 -26000 -35000 0c-5000,0 -10000,-5000 -10000,-10000l0 -38000c0,-5000 5000,-10000 10000,-10000l90000 0c6000,0 10000,5000 10000,10000l0 38000c0,5000 -4000,10000 -10000,10000l-35000 0 0 26000 191000 0 0 -26000 -35000 0c-5000,0 -10000,-5000 -10000,-10000l0 -38000c0,-5000 5000,-10000 10000,-10000l91000 0c5000,0 9000,5000 9000,10000l0 38000c0,5000 -4000,10000 -9000,10000l-36000 0 0 26000 86000 0c6000,0 10000,5000 10000,10000l0 370000c0,5000 -4000,10000 -10000,10000l-74000 0 0 110000 56000 0c6000,0 10000,5000 10000,10000 0,6000 -4000,10000 -10000,10000zm-498000 -20000l422000 0 0 -110000 -422000 0 0 110000zm174000 -546000l35000 0 0 0 0 0 35000 0 0 -18000 -70000 0 0 18000zm211000 0l35000 0 0 0 1000 0 35000 0 0 -18000 -71000 0 0 18000zm-419000 0l35000 0 1000 0 0 0 35000 0 0 -18000 -71000 0 0 18000z"/>
   <path class="fil0" d="M2268000 1384000l0 0 0 -468000 -345000 0 0 468000 0 0 0 0 0 0c1000,8000 6000,15000 14000,18000l34000 11000c36000,13000 61000,46000 61000,83000l0 95000 127000 0 0 -95000c0,-37000 25000,-70000 62000,-83000l34000 -11000c8000,-3000 13000,-10000 13000,-18000zm-161000 89000l-21000 0c-6000,0 -10000,-5000 -10000,-11000 0,-6000 4000,-11000 10000,-11000l21000 0c6000,0 11000,5000 11000,11000 0,6000 -5000,11000 -11000,11000zm20000 -45000l-60000 0c-7000,0 -11000,-5000 -11000,-11000 0,-6000 4000,-11000 11000,-11000l60000 0c6000,0 11000,5000 11000,11000 0,6000 -5000,11000 -11000,11000zm-162000 -77000l263000 0 0 -394000 -263000 0 0 394000zm274000 22000l-285000 0c-6000,0 -11000,-5000 -11000,-11000l0 -416000c0,-6000 5000,-11000 11000,-11000l285000 0c6000,0 11000,5000 11000,11000l0 416000c0,6000 -5000,11000 -11000,11000zm-218000 240000l0 0 0 0 -164000 0c-6000,0 -10000,-5000 -10000,-11000 0,-6000 4000,-11000 10000,-11000l153000 0 0 -95000c0,-28000 -18000,-53000 -46000,-62000l-34000 -11000c-17000,-6000 -28000,-21000 -28000,-39000l0 0 0 0 0 0 0 0 0 -478000c0,-6000 5000,-11000 11000,-11000l366000 0c6000,0 11000,5000 11000,11000l0 478000 0 0 0 0c0,18000 -12000,33000 -28000,39000l-34000 11000c-28000,9000 -47000,34000 -47000,62000l0 95000 153000 0c6000,0 11000,5000 11000,11000 0,6000 -5000,11000 -11000,11000l-164000 0 0 0 0 0 -149000 0z"/>
   <path class="fil0" d="M3092000 5308000l0 142000c0,22000 17000,39000 39000,39000l111000 0 0 0 0 0 111000 0c22000,0 39000,-17000 39000,-39000l0 -142000 -150000 0 0 0 0 0 -150000 0zm97000 615000c-6000,0 -10000,-4000 -10000,-10000l0 -23000c0,-5000 -3000,-9000 -7000,-11000l-10000 -6000c-16000,-8000 -25000,-24000 -25000,-42000l0 -69000c-6000,-6000 -9000,-13000 -9000,-22000l0 -10000c-17000,-3000 -30000,-17000 -30000,-35000l0 -42000c0,-14000 9000,-27000 22000,-32000l111000 -45000 0 -66000 -100000 0c-33000,0 -60000,-27000 -60000,-60000l0 -153000c0,-6000 4000,-10000 10000,-10000l150000 0 0 -35000 -301000 0c-6000,0 -11000,-4000 -11000,-10000 0,-6000 5000,-11000 11000,-11000l312000 0 0 0 0 0 312000 0c6000,0 11000,5000 11000,11000 0,6000 -5000,10000 -11000,10000l-302000 0 0 35000 151000 0c6000,0 10000,4000 10000,10000l0 153000c0,33000 -27000,60000 -60000,60000l-101000 0 0 66000 111000 45000c14000,5000 23000,18000 23000,32000l0 42000c0,12000 -5000,22000 -13000,28000l1000 1000c11000,8000 15000,23000 9000,35000l-31000 75000c-1000,2000 -2000,3000 -3000,4000l-38000 35000c-3000,3000 -5000,6000 -5000,10000l0 30000c0,6000 -4000,10000 -10000,10000 -6000,0 -11000,-4000 -11000,-10000l0 -30000c0,-10000 4000,-19000 11000,-25000l37000 -34000 31000 -73000c2000,-4000 0,-8000 -3000,-11000l-49000 -39000 0 2000c-3000,7000 -2000,15000 3000,21000l0 0 0 0 1000 1000 0 0c0,0 1000,1000 1000,1000l16000 14000c2000,2000 3000,5000 3000,8000 0,3000 -1000,6000 -3000,8000l-52000 45000c-3000,3000 -7000,4000 -10000,3000 0,0 -60000,-14000 -72000,14000 -3000,5000 -9000,8000 -14000,5000 -6000,-2000 -8000,-8000 -6000,-14000 6000,-13000 21000,-29000 58000,-30000 14000,0 27000,2000 34000,3000l13000 -11000c-7000,-1000 -14000,-3000 -19000,-8000 -5000,5000 -12000,8000 -20000,8000l-2000 0c-8000,0 -15000,-3000 -20000,-8000 -5000,5000 -12000,8000 -20000,8000l-2000 0c-8000,0 -15000,-3000 -20000,-8000 -6000,5000 -13000,8000 -20000,8000l-3000 0 0 0 0 60000c0,10000 5000,19000 14000,24000l10000 5000c11000,6000 18000,18000 18000,30000l0 23000c0,6000 -5000,10000 -11000,10000zm108000 -188000c-8000,-11000 -10000,-26000 -5000,-40000l5000 -13000c0,-4000 -4000,-8000 -9000,-8000l-3000 0c-5000,0 -9000,4000 -9000,9000l0 57000c0,6000 4000,10000 9000,10000l3000 0c5000,0 9000,-4000 9000,-10000l0 -5000zm21000 -56000l37000 30000c7000,-1000 10000,-8000 10000,-14000l0 -42000c0,-6000 -4000,-11000 -9000,-13000l-115000 -45000 -113000 45000c-5000,2000 -9000,7000 -9000,13000l0 42000c0,6000 4000,11000 9000,13000l0 -25000c0,-17000 14000,-30000 30000,-30000l3000 0c7000,0 14000,2000 20000,7000 5000,-5000 12000,-7000 20000,-7000l2000 0c8000,0 15000,2000 20000,7000 5000,-5000 12000,-7000 20000,-7000l2000 0c8000,0 15000,2000 20000,7000 6000,-5000 13000,-7000 20000,-7000l3000 0c15000,0 28000,11000 30000,26000zm-75000 -5000c-5000,0 -9000,4000 -9000,9000l0 57000c0,6000 4000,10000 9000,10000l2000 0c6000,0 10000,-4000 10000,-10000l0 -57000c0,-5000 -4000,-9000 -10000,-9000l-2000 0zm-42000 0c-6000,0 -10000,4000 -10000,9000l0 57000c0,6000 4000,10000 10000,10000l2000 0c5000,0 10000,-4000 10000,-10000l0 -57000c0,-5000 -5000,-9000 -10000,-9000l-2000 0zm-43000 0c-5000,0 -9000,4000 -9000,9000l0 57000c0,6000 4000,10000 9000,10000l3000 0c5000,0 9000,-4000 9000,-10000l0 -57000c0,-5000 -4000,-9000 -9000,-9000l-3000 0z"/>
   <path class="fil0" d="M1999000 2393000l-800000 0c-7000,0 -12000,-6000 -12000,-13000 0,-6000 5000,-12000 12000,-12000l800000 0c7000,0 12000,6000 12000,12000 0,7000 -5000,13000 -12000,13000zm-412000 377000l0 -294000 -134000 0 0 294000 134000 0zm24000 -294000l0 294000 134000 0 0 -294000 -134000 0zm388000 92000l-17000 0c-25000,0 -45000,-20000 -45000,-45000l0 -27000c0,-25000 20000,-45000 45000,-45000l17000 0c7000,0 12000,6000 12000,13000 0,6000 -5000,12000 -12000,12000l-17000 0c-11000,0 -20000,9000 -20000,20000l0 27000c0,11000 9000,20000 20000,20000l17000 0c7000,0 12000,6000 12000,12000 0,7000 -5000,13000 -12000,13000zm-144000 -92000c-11000,0 -20000,9000 -20000,20000l0 27000c0,11000 9000,20000 20000,20000l18000 0c11000,0 20000,-9000 20000,-20000l0 -27000c0,-11000 -9000,-20000 -20000,-20000l-18000 0zm18000 92000l-18000 0c-24000,0 -44000,-20000 -44000,-45000l0 -27000c0,-25000 20000,-45000 44000,-45000l18000 0c24000,0 44000,20000 44000,45000l0 27000c0,25000 -20000,45000 -44000,45000zm-657000 0l-17000 0c-7000,0 -12000,-6000 -12000,-13000 0,-6000 5000,-12000 12000,-12000l17000 0c11000,0 20000,-9000 20000,-20000l0 -27000c0,-11000 -9000,-20000 -20000,-20000l-17000 0c-7000,0 -12000,-6000 -12000,-12000 0,-7000 5000,-13000 12000,-13000l17000 0c25000,0 45000,20000 45000,45000l0 27000c0,25000 -20000,45000 -45000,45000zm109000 -92000c-11000,0 -20000,9000 -20000,20000l0 27000c0,11000 9000,20000 20000,20000l17000 0c11000,0 20000,-9000 20000,-20000l0 -27000c0,-11000 -9000,-20000 -20000,-20000l-17000 0zm17000 92000l-17000 0c-24000,0 -44000,-20000 -44000,-45000l0 -27000c0,-25000 20000,-45000 44000,-45000l17000 0c25000,0 45000,20000 45000,45000l0 27000c0,25000 -20000,45000 -45000,45000zm86000 202000l0 -306000c0,-7000 6000,-13000 12000,-13000l159000 0 158000 0c7000,0 13000,6000 13000,13000l0 306000 229000 0c7000,0 12000,5000 12000,12000 0,7000 -5000,12000 -12000,12000l-242000 0 -158000 0 -159000 0 -241000 0c-7000,0 -12000,-5000 -12000,-12000 0,-7000 5000,-12000 12000,-12000l229000 0z"/>
   <path class="fil0" d="M4028000 2747000l-54000 0c-6000,29000 -26000,50000 -51000,50000l-228000 0c-15000,0 -29000,-8000 -38000,-20000 -10000,12000 -23000,20000 -38000,20000l-228000 0c-25000,0 -46000,-21000 -51000,-50000l-103000 0c-8000,0 -14000,-6000 -14000,-14000 0,-8000 6000,-15000 14000,-15000l116000 0 304000 0 304000 0 67000 0c56000,0 101000,-45000 101000,-100000 0,-33000 -16000,-64000 -43000,-83000 0,0 -1000,0 -1000,-1000l-44000 -38000 -453000 -29000c-24000,0 -43000,-19000 -43000,-43000l0 -33000c0,-24000 19000,-44000 44000,-44000l257000 0c-83000,-40000 -174000,-62000 -268000,-62000l-341000 0c-8000,0 -14000,-6000 -14000,-14000 0,-8000 6000,-15000 14000,-15000l341000 0c131000,0 258000,40000 365000,116000 1000,0 1000,0 2000,1000l158000 139000c34000,24000 55000,64000 55000,106000 0,71000 -58000,129000 -130000,129000zm-84000 0l-271000 0c4000,12000 12000,21000 22000,21000l228000 0c9000,0 17000,-9000 21000,-21000zm-304000 0l-270000 0c3000,12000 12000,21000 21000,21000l228000 0c9000,0 18000,-9000 21000,-21000zm-381000 102000l-22000 0c-8000,0 -14000,-7000 -14000,-15000 0,-8000 6000,-14000 14000,-14000l22000 0c8000,0 14000,6000 14000,14000 0,8000 -6000,15000 -14000,15000zm898000 0l-844000 0c-8000,0 -14000,-7000 -14000,-15000 0,-8000 6000,-14000 14000,-14000l844000 0c8000,0 14000,6000 14000,14000 0,8000 -6000,15000 -14000,15000zm-910000 -317000l-10000 0c-8000,0 -15000,-7000 -15000,-14000 0,-8000 7000,-15000 15000,-15000l10000 0c8000,0 15000,7000 15000,15000 0,7000 -7000,14000 -15000,14000zm522000 171000c-4000,0 -9000,-2000 -11000,-5000l-89000 -117000c-32000,-32000 -74000,-49000 -119000,-49000l-254000 0c-8000,0 -14000,-7000 -14000,-14000 0,-8000 6000,-15000 14000,-15000l254000 0c53000,0 103000,21000 140000,58000 1000,1000 1000,1000 2000,2000l89000 117000c4000,7000 3000,16000 -3000,20000 -3000,2000 -6000,3000 -9000,3000zm-463000 -327000c-11000,0 -20000,9000 -20000,20000l0 23000c0,11000 9000,20000 20000,20000l22000 0c11000,0 20000,-9000 20000,-20000l0 -23000c0,-11000 -9000,-20000 -20000,-20000l-22000 0zm22000 91000l-22000 0c-27000,0 -49000,-21000 -49000,-48000l0 -23000c0,-27000 22000,-49000 49000,-49000l22000 0c27000,0 49000,22000 49000,49000l0 23000c0,27000 -22000,48000 -49000,48000zm120000 -91000c-11000,0 -20000,9000 -20000,20000l0 23000c0,11000 9000,20000 20000,20000l22000 0c11000,0 20000,-9000 20000,-20000l0 -23000c0,-11000 -9000,-20000 -20000,-20000l-22000 0zm22000 91000l-22000 0c-27000,0 -49000,-21000 -49000,-48000l0 -23000c0,-27000 22000,-49000 49000,-49000l22000 0c27000,0 49000,22000 49000,49000l0 23000c0,27000 -22000,48000 -49000,48000zm536000 -2000l-80000 -70000c-9000,-7000 -18000,-13000 -28000,-19000l-309000 0c-9000,0 -15000,7000 -15000,15000l0 33000c0,8000 6000,15000 15000,15000 0,0 0,0 1000,0l416000 26000z"/>
   <path class="fil0" d="M1380000 3873000l59000 0 56000 0 614000 0 56000 0 62000 0c-6000,-46000 -47000,-82000 -95000,-82000l-657000 0c-48000,0 -88000,36000 -95000,82000zm862000 528000l-77000 0 -56000 0 -614000 0 -56000 0 -74000 0c-8000,0 -14000,-7000 -14000,-14000 0,-8000 6000,-14000 14000,-14000l60000 0 0 -72000 -60000 0c-8000,0 -14000,-6000 -14000,-14000l0 -48000c0,-8000 6000,-14000 14000,-14000l60000 0 0 -324000 -60000 0c-8000,0 -14000,-6000 -14000,-14000 0,-69000 56000,-124000 124000,-124000l657000 0c69000,0 124000,55000 124000,124000 0,8000 -6000,14000 -14000,14000l-63000 0 0 324000 63000 0c8000,0 14000,6000 14000,14000l0 48000c0,8000 -6000,14000 -14000,14000l-63000 0 0 72000 63000 0c8000,0 14000,6000 14000,14000 0,7000 -6000,14000 -14000,14000zm-788000 -28000l27000 0 0 -72000 -27000 0 0 72000zm55000 0l586000 0 0 -72000 -586000 0 0 72000zm614000 0l28000 0 0 -72000 -28000 0 0 72000zm-744000 -100000l60000 0 56000 0 614000 0 56000 0 63000 0 0 -20000 -63000 0 -56000 0 -614000 0 -56000 0 -60000 0 0 20000zm75000 -48000l27000 0 0 -324000 -27000 0 0 324000zm55000 0l586000 0 0 -324000 -586000 0 0 324000zm614000 0l28000 0 0 -324000 -28000 0 0 324000z"/>
   <g>
    <path class="fil0" d="M3684000 966000c-8000,0 -14000,-6000 -14000,-14000l0 -844000 -198000 117000 0 727000c0,8000 -6000,14000 -13000,14000 -8000,0 -14000,-6000 -14000,-14000l0 -735000c0,-4000 3000,-9000 7000,-11000l225000 -133000c4000,-2000 9000,-3000 14000,0 4000,2000 6000,7000 6000,12000l0 867000c0,8000 -6000,14000 -13000,14000z"/>
    <path class="fil0" d="M3987000 966000c-7000,0 -13000,-6000 -13000,-14000l0 -171000 -73000 -13000c-6000,-1000 -11000,-6000 -11000,-13000l0 -535000 -213000 -124000c-6000,-3000 -9000,-12000 -5000,-18000 4000,-7000 12000,-9000 19000,-5000l219000 128000c4000,2000 7000,7000 7000,11000l0 532000 73000 12000c6000,1000 11000,7000 11000,13000l0 183000c0,8000 -6000,14000 -14000,14000z"/>
    <path class="fil0" d="M3459000 287000c-5000,0 -9000,-2000 -12000,-6000 -4000,-7000 -1000,-15000 5000,-19000l223000 -126000c6000,-4000 14000,-2000 18000,5000 4000,6000 2000,14000 -5000,18000l-223000 127000c-2000,1000 -4000,1000 -6000,1000z"/>
    <path class="fil0" d="M3459000 744000c-7000,0 -13000,-5000 -14000,-12000 0,-7000 5000,-14000 12000,-15000l225000 -26000c8000,-1000 14000,4000 15000,11000 1000,8000 -4000,14000 -12000,15000l-225000 27000c0,0 -1000,0 -1000,0z"/>
    <path class="fil0" d="M3903000 744000c0,0 -1000,0 -1000,0l-167000 -22000c-8000,-1000 -13000,-7000 -12000,-15000 1000,-7000 8000,-12000 15000,-11000l167000 21000c7000,1000 13000,8000 12000,15000 -1000,7000 -7000,12000 -14000,12000z"/>
    <path class="fil0" d="M3903000 282000c-2000,0 -4000,-1000 -6000,-2000l-180000 -101000c-6000,-4000 -9000,-12000 -5000,-19000 4000,-6000 12000,-8000 18000,-5000l180000 101000c6000,4000 9000,12000 5000,19000 -2000,4000 -7000,7000 -12000,7000z"/>
    <path class="fil0" d="M4131000 615000l-42000 0c-8000,0 -14000,-6000 -14000,-13000l0 -46000 -37000 0c-7000,0 -13000,-6000 -13000,-14000l0 -88000 -34000 0 0 88000c0,8000 -6000,14000 -14000,14000l-32000 0c-7000,0 -13000,-6000 -13000,-14000 0,-7000 6000,-13000 13000,-13000l19000 0 0 -88000c0,-8000 6000,-14000 13000,-14000l61000 0c7000,0 14000,6000 14000,14000l0 88000 37000 0c7000,0 13000,6000 13000,13000l0 46000 29000 0c7000,0 13000,6000 13000,14000 0,7000 -6000,13000 -13000,13000z"/>
    <path class="fil0" d="M3284000 615000l-22000 0c-7000,0 -13000,-6000 -13000,-13000 0,-8000 6000,-14000 13000,-14000l8000 0 0 -176000c0,-8000 7000,-14000 14000,-14000l38000 0c7000,0 13000,6000 13000,14000l0 46000 46000 0c8000,0 14000,6000 14000,13000l0 58000 20000 0c7000,0 13000,6000 13000,13000 0,8000 -6000,14000 -13000,14000l-34000 0c-7000,0 -13000,-6000 -13000,-14000l0 -57000 -46000 0c-8000,0 -14000,-6000 -14000,-14000l0 -46000 -11000 0 0 177000c0,7000 -6000,13000 -13000,13000z"/>
    <path class="fil0" d="M3491000 966000l-133000 0c-8000,0 -14000,-6000 -14000,-14000 0,-7000 6000,-13000 14000,-13000l133000 0c8000,0 14000,6000 14000,13000 0,8000 -6000,14000 -14000,14000z"/>
    <path class="fil0" d="M4092000 966000l-554000 0c-8000,0 -14000,-6000 -14000,-14000 0,-7000 6000,-13000 14000,-13000l554000 0c8000,0 14000,6000 14000,13000 0,8000 -6000,14000 -14000,14000z"/>
    <path class="fil0" d="M3812000 939000l58000 0 0 -41000 -58000 0 0 41000zm72000 27000l-85000 0c-8000,0 -14000,-6000 -14000,-14000l0 -67000c0,-8000 6000,-14000 14000,-14000l85000 0c7000,0 13000,6000 13000,14000l0 67000c0,8000 -6000,14000 -13000,14000z"/>
   </g>
   <g>
    <path class="fil0" d="M3666000 9832000l-437000 0c-5000,0 -10000,-5000 -10000,-10000l0 -281000c0,-5000 5000,-10000 10000,-10000l83000 0c6000,0 10000,5000 10000,10000 0,6000 -4000,10000 -10000,10000l-73000 0 0 261000 417000 0 0 -261000 -68000 0c-6000,0 -10000,-4000 -10000,-10000 0,-5000 4000,-10000 10000,-10000l78000 0c5000,0 10000,5000 10000,10000l0 281000c0,5000 -5000,10000 -10000,10000z"/>
    <path class="fil0" d="M3235000 9879000l-16000 0c-5000,0 -10000,-4000 -10000,-10000 0,-5000 5000,-9000 10000,-9000l16000 0c5000,0 10000,4000 10000,9000 0,6000 -5000,10000 -10000,10000z"/>
    <path class="fil0" d="M3628000 9879000l-179000 0c-5000,0 -10000,-4000 -10000,-10000 0,-5000 5000,-9000 10000,-9000l179000 0c5000,0 9000,4000 9000,9000 0,6000 -4000,10000 -9000,10000z"/>
    <path class="fil0" d="M3827000 9879000l-76000 0c-6000,0 -10000,-4000 -10000,-10000 0,-5000 4000,-9000 10000,-9000l76000 0c1000,0 1000,-1000 1000,-2000l0 -25000c0,-1000 0,-1000 -1000,-1000l-37000 0c-5000,0 -9000,-5000 -9000,-10000 0,-5000 4000,-10000 9000,-10000l37000 0c11000,0 21000,10000 21000,21000l0 25000c0,12000 -10000,21000 -21000,21000z"/>
    <path class="fil0" d="M3295000 9864000c-12000,0 -22000,11000 -22000,24000 0,13000 10000,24000 22000,24000 12000,0 22000,-11000 22000,-24000 0,-13000 -10000,-24000 -22000,-24000zm0 68000c-23000,0 -41000,-20000 -41000,-44000 0,-24000 18000,-43000 41000,-43000 23000,0 42000,19000 42000,43000 0,24000 -19000,44000 -42000,44000z"/>
    <path class="fil0" d="M3387000 9864000c-12000,0 -22000,11000 -22000,24000 0,13000 10000,24000 22000,24000 13000,0 22000,-11000 22000,-24000 0,-13000 -9000,-24000 -22000,-24000zm0 68000c-22000,0 -41000,-20000 -41000,-44000 0,-24000 19000,-43000 41000,-43000 23000,0 42000,19000 42000,43000 0,24000 -19000,44000 -42000,44000z"/>
    <path class="fil0" d="M3689000 9864000c-12000,0 -22000,11000 -22000,24000 0,13000 10000,24000 22000,24000 13000,0 22000,-11000 22000,-24000 0,-13000 -9000,-24000 -22000,-24000zm0 68000c-22000,0 -41000,-20000 -41000,-44000 0,-24000 19000,-43000 41000,-43000 23000,0 42000,19000 42000,43000 0,24000 -19000,44000 -42000,44000z"/>
    <path class="fil0" d="M3788000 9713000l-57000 0c-22000,0 -40000,-19000 -40000,-42000l0 -38000c0,-5000 5000,-10000 10000,-10000l29000 0c6000,0 10000,5000 10000,10000 0,6000 -4000,10000 -10000,10000l-19000 0 0 28000c0,12000 9000,22000 20000,22000l57000 0c6000,0 10000,5000 10000,10000 0,5000 -4000,10000 -10000,10000z"/>
    <path class="fil0" d="M3810000 9832000l-145000 0c-5000,0 -9000,-5000 -9000,-10000 0,-5000 4000,-10000 9000,-10000l145000 0c1000,0 2000,-1000 2000,-2000l0 -73000c0,-14000 -10000,-24000 -22000,-24000 -3000,0 -6000,-2000 -8000,-4000l-75000 -93000c0,0 -1000,0 -1000,0 0,-1000 0,-1000 0,-1000l-39000 0c-6000,0 -10000,-4000 -10000,-10000 0,-5000 4000,-9000 10000,-9000l39000 0c6000,0 12000,3000 16000,8000l73000 89000c20000,3000 36000,21000 36000,44000l0 73000c0,12000 -9000,22000 -21000,22000z"/>
    <path class="fil0" d="M3818000 9772000c0,0 -1000,0 -2000,0l-41000 -10000c0,0 0,0 0,0 -6000,-2000 -10000,-7000 -12000,-13000l-3000 -12000c-1000,-5000 2000,-10000 7000,-12000 5000,-1000 11000,2000 12000,7000l3000 11000 39000 10000c5000,1000 8000,6000 7000,11000 -1000,5000 -5000,8000 -10000,8000z"/>
    <path class="fil0" d="M3276000 9781000l-45000 0c-5000,0 -10000,-4000 -10000,-10000 0,-5000 5000,-10000 10000,-10000l45000 0c5000,0 10000,5000 10000,10000 0,6000 -5000,10000 -10000,10000z"/>
    <path class="fil0" d="M3325000 9762000l249000 0 0 -260000 -249000 0 0 260000zm259000 19000l-269000 0c-5000,0 -10000,-4000 -10000,-10000l0 -279000c0,-5000 5000,-10000 10000,-10000l269000 0c5000,0 10000,5000 10000,10000l0 279000c0,6000 -5000,10000 -10000,10000z"/>
   </g>
   <path class="fil0" d="M608000 9046000c-7000,0 -12000,-6000 -12000,-13000l0 -268000 -172000 0 -1000 0 0 0 0 0 -141000 0c-6000,0 -12000,-6000 -12000,-12000 0,-7000 6000,-13000 12000,-13000l112000 0c-16000,-11000 -35000,-17000 -55000,-17000l-243000 0c-12000,0 -23000,7000 -29000,17000l7000 0c7000,0 12000,6000 12000,13000 0,6000 -5000,12000 -12000,12000l-22000 0 0 0 -17000 0 0 38000 101000 0 1000 0 0 0 118000 0 1000 0 0 0 121000 0c7000,0 12000,5000 12000,12000l0 94000c0,7000 -5000,12000 -12000,12000l-121000 0 0 0 -1000 0 -118000 0 0 0 -1000 0 -101000 0 0 132000 11000 0c6000,0 12000,5000 12000,12000 0,7000 -6000,12000 -12000,12000l-23000 0c-7000,0 -12000,-5000 -12000,-12000l0 -156000 0 0 0 0 0 -94000 0 0 0 -1000 0 -61000 0 0c0,-7000 5000,-13000 12000,-13000l18000 0c7000,-24000 29000,-42000 55000,-42000l243000 0c35000,0 68000,16000 90000,42000l179000 0 0 0 0 0 66000 0c30000,0 55000,22000 61000,51000l26000 124000c22000,5000 39000,26000 39000,50000l0 86000c0,1000 0,2000 0,2000 11000,3000 19000,13000 19000,25000l0 29000c0,14000 -11000,25000 -25000,25000l-90000 0c-7000,0 -12000,-5000 -12000,-12000 0,-7000 5000,-12000 12000,-12000l90000 0c0,0 1000,0 1000,-1000l0 -29000c0,0 -1000,-1000 -1000,-1000l-19000 0 -24000 0 0 0 -55000 0c-6000,0 -12000,-5000 -12000,-12000 0,-7000 6000,-12000 12000,-12000l55000 0 0 0 24000 0c0,0 0,-1000 0,-2000l0 -45000 -41000 -10000c-1000,0 -1000,-1000 -1000,-1000 -7000,-2000 -13000,-8000 -14000,-15000l-4000 -14000c-2000,-6000 2000,-13000 9000,-15000 7000,-1000 13000,3000 15000,9000l3000 12000 33000 9000 0 -16000c0,-15000 -11000,-27000 -24000,-27000 -6000,0 -11000,-4000 -12000,-10000l-2000 -7000 -72000 0c-6000,0 -12000,-5000 -12000,-12000l0 -124000c0,-7000 6000,-12000 12000,-12000 7000,0 13000,5000 13000,12000l0 112000 54000 0 -21000 -101000c0,0 0,0 0,0 -3000,-18000 -19000,-31000 -37000,-31000l-54000 0 0 268000c0,7000 -5000,13000 -12000,13000zm-484000 -149000l0 -70000 -89000 0 0 70000 89000 0zm25000 -70000l0 70000 94000 0 0 -70000 -94000 0zm119000 0l0 70000 97000 0 0 -70000 -97000 0zm153000 281000l0 -293000c0,-7000 6000,-12000 13000,-12000l123000 0c7000,0 13000,5000 13000,12000l0 243000c0,7000 -6000,12000 -13000,12000 -6000,0 -12000,-5000 -12000,-12000l0 -231000 -99000 0 0 281000 103000 0c6000,0 12000,5000 12000,12000 0,7000 -6000,12000 -12000,12000l-115000 0 0 0 -1000 0 -233000 0c-6000,0 -12000,-5000 -12000,-12000 0,-7000 6000,-12000 12000,-12000l221000 0zm206000 -25000c-17000,0 -31000,15000 -31000,33000 0,19000 14000,34000 31000,34000 17000,0 31000,-15000 31000,-34000 0,-18000 -14000,-33000 -31000,-33000zm0 92000c-30000,0 -55000,-26000 -55000,-59000 0,-32000 25000,-58000 55000,-58000 31000,0 56000,26000 56000,58000 0,33000 -25000,59000 -56000,59000zm-508000 -92000c-17000,0 -31000,15000 -31000,33000 0,19000 14000,34000 31000,34000 17000,0 30000,-15000 30000,-34000 0,-18000 -13000,-33000 -30000,-33000zm0 92000c-31000,0 -56000,-26000 -56000,-59000 0,-32000 25000,-58000 56000,-58000 30000,0 55000,26000 55000,58000 0,33000 -25000,59000 -55000,59000zm-81000 -43000l-26000 0c-7000,0 -12000,-5000 -12000,-12000 0,-7000 5000,-12000 12000,-12000l26000 0c6000,0 12000,5000 12000,12000 0,7000 -6000,12000 -12000,12000z"/>
   <g>
    <path class="fil0" d="M3710000 3854000c-2000,0 -4000,-1000 -5000,-2000l-188000 -108000c-7000,-4000 -15000,-6000 -23000,-6000l-76000 0 0 1000c0,16000 13000,29000 29000,29000l86000 0c7000,0 12000,5000 12000,12000 0,6000 -5000,11000 -12000,11000l-86000 0c-28000,0 -52000,-24000 -52000,-52000l0 -12000c0,-6000 5000,-11000 11000,-11000l88000 0c12000,0 24000,3000 34000,9000l188000 108000c5000,3000 7000,10000 4000,15000 -2000,4000 -6000,6000 -10000,6000z"/>
    <path class="fil0" d="M3710000 3949000c-6000,0 -11000,-5000 -11000,-11000l0 -95000c0,-4000 2000,-8000 6000,-10000l187000 -108000c11000,-6000 22000,-9000 34000,-9000l88000 0c6000,0 11000,5000 11000,11000l0 12000c0,28000 -23000,52000 -52000,52000l-86000 0c-6000,0 -11000,-5000 -11000,-11000 0,-7000 5000,-12000 11000,-12000l86000 0c17000,0 30000,-13000 30000,-29000l0 -1000 -77000 0c-8000,0 -16000,2000 -23000,6000l-182000 105000 0 89000c0,6000 -5000,11000 -11000,11000z"/>
    <path class="fil0" d="M3710000 4447000c-6000,0 -11000,-5000 -11000,-11000l0 -100000c0,-6000 5000,-11000 11000,-11000 6000,0 11000,5000 11000,11000l0 100000c0,6000 -5000,11000 -11000,11000z"/>
    <path class="fil0" d="M3585000 4325000l251000 0 0 -376000 -251000 0 0 376000zm262000 23000l-273000 0c-7000,0 -12000,-5000 -12000,-12000l0 -398000c0,-7000 5000,-12000 12000,-12000l273000 0c6000,0 11000,5000 11000,12000l0 398000c0,7000 -5000,12000 -11000,12000z"/>
   </g>
   <g>
    <path class="fil0" d="M1831000 9429000c-100000,0 -181000,81000 -181000,180000 0,100000 81000,181000 181000,181000 99000,0 180000,-81000 180000,-181000 0,-99000 -81000,-180000 -180000,-180000zm0 377000c-109000,0 -197000,-88000 -197000,-197000 0,-108000 88000,-196000 197000,-196000 108000,0 196000,88000 196000,196000 0,109000 -88000,197000 -196000,197000z"/>
    <path class="fil0" d="M1899000 9509000c-4000,0 -7000,-2000 -8000,-6000 -15000,-46000 -37000,-74000 -60000,-74000 -23000,0 -45000,26000 -60000,71000 -1000,4000 -6000,6000 -10000,5000 -4000,-2000 -6000,-6000 -5000,-10000 17000,-52000 44000,-82000 75000,-82000 31000,0 58000,31000 75000,85000 2000,5000 -1000,9000 -5000,10000 -1000,1000 -2000,1000 -2000,1000z"/>
    <path class="fil0" d="M1831000 9806000c-31000,0 -59000,-31000 -76000,-84000 -1000,-4000 1000,-9000 6000,-10000 4000,-1000 8000,1000 10000,5000 14000,46000 37000,73000 60000,73000 22000,0 45000,-27000 59000,-72000 2000,-4000 6000,-7000 10000,-5000 4000,1000 7000,6000 5000,10000 -17000,53000 -44000,83000 -74000,83000z"/>
    <path class="fil0" d="M1811000 9932000c-3000,0 -6000,-2000 -7000,-5000l-64000 -145000c-2000,-4000 0,-9000 4000,-11000 4000,-1000 9000,0 11000,5000l64000 145000c1000,4000 0,8000 -4000,10000 -2000,1000 -3000,1000 -4000,1000z"/>
    <path class="fil0" d="M1570000 9932000c0,0 -1000,0 -1000,0 -5000,-1000 -7000,-6000 -6000,-10000l71000 -314000c1000,-5000 5000,-7000 10000,-6000 4000,1000 7000,5000 6000,9000l-72000 315000c-1000,3000 -4000,6000 -8000,6000z"/>
    <path class="fil0" d="M2092000 9932000c-4000,0 -7000,-3000 -8000,-6000l-73000 -315000c-1000,-4000 2000,-8000 6000,-9000 5000,-1000 9000,1000 10000,6000l72000 314000c1000,4000 -1000,9000 -6000,10000 0,0 -1000,0 -1000,0z"/>
    <path class="fil0" d="M1853000 9700000c-17000,0 -34000,0 -52000,-1000 -21000,0 -42000,0 -64000,0 -5000,0 -8000,-3000 -8000,-8000l0 -163000c0,-5000 3000,-8000 8000,-8000 15000,0 30000,0 45000,0 111000,-1000 192000,-1000 229000,17000 4000,2000 6000,7000 4000,11000 -2000,4000 -7000,6000 -11000,4000 -34000,-17000 -117000,-17000 -222000,-16000 -12000,0 -25000,0 -37000,0l0 147000c19000,0 38000,0 56000,0 99000,1000 171000,1000 203000,-15000 4000,-2000 8000,0 10000,4000 2000,4000 1000,9000 -3000,11000 -29000,14000 -84000,17000 -158000,17000z"/>
    <path class="fil0" d="M1854000 9932000c-1000,0 -2000,0 -3000,-1000 -4000,-2000 -6000,-6000 -4000,-10000l61000 -145000c1000,-4000 6000,-6000 10000,-5000 4000,2000 6000,7000 5000,11000l-62000 145000c-1000,3000 -4000,5000 -7000,5000z"/>
   </g>
   <path class="fil0" d="M28000 867000l45000 0 0 -781000c0,-8000 6000,-14000 14000,-14000l297000 0 0 0 0 0 297000 0c8000,0 14000,6000 14000,14000l0 781000 175000 0 0 -261000 -143000 0c-8000,0 -14000,-7000 -14000,-14000 0,-8000 6000,-14000 14000,-14000l143000 0 0 -280000 -143000 0c-8000,0 -14000,-6000 -14000,-13000 0,-8000 6000,-14000 14000,-14000l143000 0 0 -243000 -842000 0 0 839000zm749000 -391000l6000 10000 5000 -10000 -11000 0zm6000 52000c-5000,0 -10000,-3000 -13000,-7000l-29000 -52000c-2000,-5000 -2000,-10000 0,-14000 3000,-5000 7000,-7000 12000,-7000l59000 0c5000,0 10000,2000 12000,7000 3000,4000 3000,9000 0,14000l-29000 52000c-3000,4000 -7000,7000 -12000,7000zm-6000 -121000l11000 0 -5000 -10000 -6000 10000zm35000 28000l-59000 0c-5000,0 -9000,-3000 -12000,-7000 -2000,-4000 -2000,-10000 0,-14000l29000 -52000c3000,-5000 8000,-7000 13000,-7000 5000,0 9000,2000 12000,7000l29000 52000c3000,4000 3000,10000 0,14000 -2000,4000 -7000,7000 -12000,7000zm-442000 432000l0 -767000 -269000 0 0 767000 269000 0zm28000 -767000l0 767000 269000 0 0 -767000 -269000 0zm486000 795000l-203000 0 0 0 -297000 0 0 0 0 0 -297000 0 -1000 0 -72000 0c-8000,0 -14000,-7000 -14000,-14000l0 -867000c0,-8000 6000,-14000 14000,-14000l870000 0c7000,0 14000,6000 14000,14000l0 867000c0,7000 -7000,14000 -14000,14000z"/>
   <g>
    <path class="fil0" d="M3984000 8734000c-5000,0 -10000,-4000 -10000,-10000l0 -530000c0,-5000 5000,-10000 10000,-10000 6000,0 10000,5000 10000,10000l0 530000c0,6000 -4000,10000 -10000,10000z"/>
    <path class="fil0" d="M3720000 8736000c-5000,0 -10000,-5000 -10000,-10000l0 -532000c0,-5000 5000,-10000 10000,-10000 6000,0 10000,5000 10000,10000l0 532000c0,5000 -4000,10000 -10000,10000z"/>
    <path class="fil0" d="M3848000 8573000c-15000,0 -29000,0 -43000,-1000 -3000,0 -5000,-1000 -7000,-3000 -2000,-2000 -3000,-5000 -3000,-7000l0 0 0 -243000c0,0 0,0 0,0l0 -1000c1000,-3000 2000,-6000 4000,-7000 2000,-2000 4000,-3000 7000,-3000 13000,1000 28000,1000 42000,1000 75000,0 118000,-8000 127000,-13000 2000,-3000 5000,-5000 9000,-5000 6000,0 10000,4000 10000,10000 0,11000 -13000,18000 -48000,22000 -26000,4000 -61000,6000 -98000,6000 -11000,0 -22000,0 -33000,-1000l0 225000c11000,0 22000,0 33000,0 75000,0 118000,-8000 127000,-12000 2000,-4000 5000,-6000 9000,-6000 6000,0 10000,4000 10000,10000 0,12000 -13000,18000 -48000,23000 -26000,3000 -61000,5000 -98000,5000z"/>
    <path class="fil0" d="M3848000 8778000c-51000,0 -99000,-5000 -136000,-12000 -42000,-9000 -63000,-22000 -63000,-38000 0,-13000 13000,-24000 39000,-32000 6000,-2000 11000,1000 13000,7000 1000,5000 -2000,10000 -7000,12000 -19000,6000 -24000,11000 -25000,13000 1000,2000 9000,11000 52000,19000 35000,7000 80000,11000 127000,11000 48000,0 93000,-4000 127000,-11000 45000,-9000 52000,-18000 52000,-19000 0,-2000 -4000,-6000 -16000,-11000 -5000,-2000 -8000,-7000 -6000,-13000 2000,-5000 7000,-8000 13000,-6000 19000,7000 29000,17000 29000,30000 0,16000 -20000,29000 -63000,38000 -36000,7000 -85000,12000 -136000,12000z"/>
    <path class="fil0" d="M3659000 8801000c-6000,0 -10000,-5000 -10000,-10000l0 -63000c0,-6000 4000,-10000 10000,-10000 5000,0 10000,4000 10000,10000l0 63000c0,5000 -5000,10000 -10000,10000z"/>
    <path class="fil0" d="M4037000 8801000c-5000,0 -10000,-5000 -10000,-10000l0 -63000c0,-6000 5000,-10000 10000,-10000 6000,0 10000,4000 10000,10000l0 63000c0,5000 -4000,10000 -10000,10000z"/>
    <path class="fil0" d="M3984000 8828000c-5000,0 -10000,-4000 -10000,-10000l0 -61000c0,-6000 5000,-10000 10000,-10000 6000,0 10000,4000 10000,10000l0 61000c0,6000 -4000,10000 -10000,10000z"/>
    <path class="fil0" d="M3896000 8840000c-5000,0 -10000,-4000 -10000,-10000l0 -62000c0,-6000 5000,-10000 10000,-10000 6000,0 10000,4000 10000,10000l0 62000c0,6000 -4000,10000 -10000,10000z"/>
    <path class="fil0" d="M3808000 8840000c-5000,0 -10000,-4000 -10000,-10000l0 -62000c0,-6000 5000,-10000 10000,-10000 6000,0 10000,4000 10000,10000l0 62000c0,6000 -4000,10000 -10000,10000z"/>
    <path class="fil0" d="M3720000 8828000c-5000,0 -10000,-4000 -10000,-10000l0 -60000c0,-5000 5000,-10000 10000,-10000 6000,0 10000,5000 10000,10000l0 60000c0,6000 -4000,10000 -10000,10000z"/>
   </g>
   <g>
    <path class="fil0" d="M1430000 6105000l121000 0 0 -337000 -121000 0 0 337000zm132000 22000l-143000 0c-6000,0 -11000,-5000 -11000,-11000l0 -360000c0,-6000 5000,-11000 11000,-11000l143000 0c6000,0 11000,5000 11000,11000l0 360000c0,6000 -5000,11000 -11000,11000z"/>
    <path class="fil0" d="M1664000 6105000l121000 0 0 -337000 -121000 0 0 337000zm132000 22000l-143000 0c-6000,0 -11000,-5000 -11000,-11000l0 -360000c0,-6000 5000,-11000 11000,-11000l143000 0c6000,0 11000,5000 11000,11000l0 360000c0,6000 -5000,11000 -11000,11000z"/>
    <path class="fil0" d="M1607000 6335000c-6000,0 -11000,-5000 -11000,-11000l0 -616000c0,-6000 5000,-11000 11000,-11000 6000,0 11000,5000 11000,11000l0 616000c0,6000 -5000,11000 -11000,11000z"/>
    <path class="fil0" d="M1607000 5640000c-15000,0 -28000,13000 -28000,29000 0,15000 13000,28000 28000,28000 16000,0 28000,-13000 28000,-28000 0,-16000 -12000,-29000 -28000,-29000zm0 79000c-28000,0 -50000,-23000 -50000,-50000 0,-28000 22000,-51000 50000,-51000 28000,0 51000,23000 51000,51000 0,27000 -23000,50000 -51000,50000z"/>
    <path class="fil0" d="M1607000 5640000c-6000,0 -11000,-5000 -11000,-11000l0 -21000c0,-7000 5000,-11000 11000,-11000 6000,0 11000,4000 11000,11000l0 21000c0,6000 -5000,11000 -11000,11000z"/>
    <path class="fil0" d="M1669000 6335000l-124000 0c-6000,0 -11000,-5000 -11000,-11000 0,-6000 5000,-11000 11000,-11000l124000 0c6000,0 11000,5000 11000,11000 0,6000 -5000,11000 -11000,11000z"/>
    <path class="fil0" d="M1653000 5813000l-91000 0c-7000,0 -11000,-5000 -11000,-11000 0,-6000 4000,-11000 11000,-11000l91000 0c6000,0 11000,5000 11000,11000 0,6000 -5000,11000 -11000,11000z"/>
    <path class="fil0" d="M1653000 6082000l-91000 0c-7000,0 -11000,-5000 -11000,-11000 0,-6000 4000,-11000 11000,-11000l91000 0c6000,0 11000,5000 11000,11000 0,6000 -5000,11000 -11000,11000z"/>
   </g>
   <g>
    <path class="fil0" d="M1925000 7974000c-5000,0 -10000,4000 -10000,10000 0,6000 5000,11000 10000,11000l335000 0c5000,0 10000,-5000 10000,-11000 0,-6000 -5000,-10000 -10000,-10000l-335000 0z"/>
    <path class="fil0" d="M2260000 8040000l-335000 0c-5000,0 -10000,5000 -10000,10000 0,6000 5000,11000 10000,11000l335000 0c5000,0 10000,-5000 10000,-11000 0,-5000 -5000,-10000 -10000,-10000z"/>
    <path class="fil0" d="M2343000 7484000l-501000 0c-19000,0 -35000,16000 -35000,36000l0 373000c0,6000 5000,10000 11000,10000 5000,0 10000,-4000 10000,-10000l0 -373000c0,-8000 6000,-15000 14000,-15000l501000 0c7000,0 14000,7000 14000,15000l0 374000c0,6000 5000,10000 10000,10000 6000,0 11000,-4000 11000,-10000l0 -374000c0,-20000 -16000,-36000 -35000,-36000z"/>
    <path class="fil0" d="M2367000 7932000c-5000,0 -10000,5000 -10000,11000l0 224000c0,8000 -7000,14000 -14000,14000l-501000 0c-8000,0 -14000,-6000 -14000,-14000l0 -225000c0,-6000 -5000,-11000 -10000,-11000 -6000,0 -11000,5000 -11000,11000l0 225000c0,20000 16000,35000 35000,35000l501000 0c19000,0 35000,-15000 35000,-35000l0 -224000c0,-6000 -5000,-11000 -11000,-11000z"/>
    <path class="fil0" d="M1965000 7800000l0 79000c0,17000 14000,31000 32000,31000l0 0c17000,0 31000,-14000 31000,-31000l0 -78000 17000 0c6000,2000 12000,-1000 14000,-6000 1000,-4000 0,-7000 -2000,-10000l0 -101000 100000 -34000 0 167000 -58000 -20000c-6000,-2000 -12000,1000 -14000,7000 -2000,5000 1000,11000 7000,13000l64000 22000c11000,3000 22000,-5000 22000,-16000l0 -179000c0,-9000 -8000,-17000 -17000,-17000 -1000,0 -3000,1000 -5000,1000l-111000 38000 -68000 0c-37000,0 -68000,30000 -68000,67000 0,34000 25000,62000 56000,67000zm42000 79000c0,6000 -4000,10000 -10000,10000l0 0c-6000,0 -11000,-4000 -11000,-10000l0 -78000 21000 0 0 78000zm-30000 -192000l59000 0 0 93000c-40000,0 -61000,0 -60000,0 -25000,-1000 -46000,-21000 -46000,-47000 0,-25000 21000,-46000 47000,-46000z"/>
    <path class="fil0" d="M2217000 7744000l38000 0c6000,0 11000,-5000 11000,-11000 0,-5000 -5000,-10000 -11000,-10000l-38000 0c-6000,0 -10000,5000 -10000,10000 0,6000 4000,11000 10000,11000z"/>
    <path class="fil0" d="M2229000 7687000l27000 -22000c5000,-4000 6000,-10000 2000,-15000 -4000,-4000 -10000,-5000 -15000,-1000l-27000 22000c-4000,3000 -5000,10000 -2000,14000 4000,5000 11000,6000 15000,2000z"/>
    <path class="fil0" d="M2243000 7818000c5000,4000 11000,3000 15000,-1000 4000,-5000 3000,-11000 -2000,-15000l-27000 -22000c-4000,-4000 -11000,-3000 -15000,2000 -3000,4000 -2000,11000 2000,14000l27000 22000z"/>
    <path class="fil0" d="M2297000 8151000c16000,0 29000,-13000 29000,-29000l0 -557000c0,-16000 -13000,-29000 -29000,-29000l-172000 0c-8000,-9000 -20000,-15000 -33000,-15000 -13000,0 -25000,6000 -33000,15000l-171000 0c-16000,0 -29000,13000 -29000,29000l0 557000c0,16000 13000,29000 29000,29000l409000 0zm-205000 -609000c11000,0 20000,8000 21000,18000 1000,13000 -9000,24000 -21000,24000 -13000,0 -23000,-12000 -21000,-25000 2000,-10000 11000,-17000 21000,-17000zm-212000 580000l0 -557000c0,-4000 3000,-8000 8000,-8000l162000 0c0,0 0,1000 0,1000 -3000,25000 17000,47000 42000,47000 25000,0 45000,-22000 42000,-47000 0,0 0,-1000 0,-1000l163000 0c5000,0 8000,4000 8000,8000l0 557000c0,4000 -3000,8000 -8000,8000l-409000 0c-5000,0 -8000,-4000 -8000,-8000z"/>
   </g>
  </g>
 </g>
</svg>
